<svg width="238" height="149" viewBox="0 0 238 149" fill="none" xmlns="http://www.w3.org/2000/svg">
<g filter="url(#filter0_d_7232_107160)">
<path d="M168.362 38.3353C174.515 32.1504 184.517 32.1246 190.702 38.2777C193.235 40.7971 194.733 43.9619 195.199 47.2455C197.444 48.0033 199.554 49.2725 201.347 51.0561C207.605 57.2818 207.631 67.4023 201.405 73.6605C195.544 79.5526 186.231 79.9194 179.939 74.7465C179.502 75.3259 179.022 75.8835 178.495 76.4125C172.27 82.6707 162.149 82.6969 155.891 76.4711C154.17 74.7591 152.921 72.7524 152.143 70.6127C149.185 70.1524 146.34 68.7888 144.055 66.516C138.305 60.7957 138.281 51.4966 144.001 45.7465C149.578 40.1407 158.555 39.9779 164.33 45.2738C165.028 42.7348 166.372 40.3354 168.362 38.3353Z" fill="url(#paint0_linear_7232_107160)"/>
<g filter="url(#filter1_f_7232_107160)">
<ellipse cx="112.926" cy="75.2735" rx="22.5664" ry="13.0079" fill="#D9D9D9"/>
</g>
</g>
<g filter="url(#filter2_d_7232_107160)">
<path d="M100.961 17.5C113.348 17.5 123.641 26.4598 125.716 38.252C127.771 37.5019 129.991 37.0928 132.306 37.0928C142.922 37.0928 151.527 45.6993 151.527 56.3154C151.527 63.6845 147.38 70.0836 141.293 73.3096C141.795 75.0249 142.065 76.8392 142.065 78.7168C142.065 89.3329 133.46 97.9393 122.844 97.9395C115.565 97.9395 109.231 93.8927 105.968 87.9268C101.575 96.3367 92.7714 102.078 82.626 102.078C71.6485 102.078 62.2421 95.3568 58.2939 85.8057C55.7544 87.1359 52.8654 87.8896 49.7998 87.8896C39.6736 87.8896 31.4648 79.6809 31.4648 69.5547C31.4651 59.4287 39.6738 51.2197 49.7998 51.2197C52.5606 51.2198 55.1781 51.8319 57.5264 52.9248C59.316 47.1339 64.7122 42.9268 71.0908 42.9268C72.7602 42.9268 74.3619 43.2158 75.8496 43.7451C75.8337 43.3776 75.8242 43.0081 75.8242 42.6367C75.8242 28.7542 87.0784 17.5001 100.961 17.5ZM107.427 66.9316C107.451 67.0003 107.476 67.0688 107.5 67.1377C107.572 67.0426 107.643 66.9472 107.717 66.8535C107.62 66.8803 107.524 66.9059 107.427 66.9316Z" fill="url(#paint1_linear_7232_107160)"/>
</g>
<g filter="url(#filter3_d_7232_107160)">
<path d="M126.664 67.806C133.982 60.4498 145.874 60.4145 153.224 67.7269C153.524 68.0247 153.81 68.3315 154.085 68.6439C158.994 67.7565 164.244 69.203 168.049 72.9886C174.235 79.1418 174.261 89.1441 168.108 95.3294C162.851 100.614 154.784 101.401 148.688 97.681C142.453 100.953 134.766 100.485 128.951 96.264C123.325 99.6192 115.936 98.887 111.079 94.055C105.329 88.3347 105.304 79.0356 111.024 73.2855C114.86 69.4298 120.305 68.1486 125.21 69.4476C125.657 68.8797 126.141 68.331 126.664 67.806Z" fill="url(#paint2_linear_7232_107160)"/>
</g>
<defs>
<filter id="filter0_d_7232_107160" x="59.3594" y="16.6797" width="177.699" height="116.602" filterUnits="userSpaceOnUse" color-interpolation-filters="sRGB">
<feFlood flood-opacity="0" result="BackgroundImageFix"/>
<feColorMatrix in="SourceAlpha" type="matrix" values="0 0 0 0 0 0 0 0 0 0 0 0 0 0 0 0 0 0 127 0" result="hardAlpha"/>
<feOffset dy="14"/>
<feGaussianBlur stdDeviation="15.5"/>
<feComposite in2="hardAlpha" operator="out"/>
<feColorMatrix type="matrix" values="0 0 0 0 0.44828 0 0 0 0 0.40502 0 0 0 0 0.15988 0 0 0 0.38 0"/>
<feBlend mode="normal" in2="BackgroundImageFix" result="effect1_dropShadow_7232_107160"/>
<feBlend mode="normal" in="SourceGraphic" in2="effect1_dropShadow_7232_107160" result="shape"/>
</filter>
<filter id="filter1_f_7232_107160" x="83.3594" y="55.2656" width="59.1328" height="40.0156" filterUnits="userSpaceOnUse" color-interpolation-filters="sRGB">
<feFlood flood-opacity="0" result="BackgroundImageFix"/>
<feBlend mode="normal" in="SourceGraphic" in2="BackgroundImageFix" result="shape"/>
<feGaussianBlur stdDeviation="3.5" result="effect1_foregroundBlur_7232_107160"/>
</filter>
<filter id="filter2_d_7232_107160" x="0.464844" y="0.5" width="182.062" height="146.578" filterUnits="userSpaceOnUse" color-interpolation-filters="sRGB">
<feFlood flood-opacity="0" result="BackgroundImageFix"/>
<feColorMatrix in="SourceAlpha" type="matrix" values="0 0 0 0 0 0 0 0 0 0 0 0 0 0 0 0 0 0 127 0" result="hardAlpha"/>
<feOffset dy="14"/>
<feGaussianBlur stdDeviation="15.5"/>
<feComposite in2="hardAlpha" operator="out"/>
<feColorMatrix type="matrix" values="0 0 0 0 0.44828 0 0 0 0 0.40502 0 0 0 0 0.15988 0 0 0 0.28 0"/>
<feBlend mode="normal" in2="BackgroundImageFix" result="effect1_dropShadow_7232_107160"/>
<feBlend mode="normal" in="SourceGraphic" in2="effect1_dropShadow_7232_107160" result="shape"/>
</filter>
<filter id="filter3_d_7232_107160" x="75.75" y="45.2656" width="127.957" height="99.7188" filterUnits="userSpaceOnUse" color-interpolation-filters="sRGB">
<feFlood flood-opacity="0" result="BackgroundImageFix"/>
<feColorMatrix in="SourceAlpha" type="matrix" values="0 0 0 0 0 0 0 0 0 0 0 0 0 0 0 0 0 0 127 0" result="hardAlpha"/>
<feOffset dy="14"/>
<feGaussianBlur stdDeviation="15.5"/>
<feComposite in2="hardAlpha" operator="out"/>
<feColorMatrix type="matrix" values="0 0 0 0 0.44828 0 0 0 0 0.40502 0 0 0 0 0.15988 0 0 0 0.38 0"/>
<feBlend mode="normal" in2="BackgroundImageFix" result="effect1_dropShadow_7232_107160"/>
<feBlend mode="normal" in="SourceGraphic" in2="effect1_dropShadow_7232_107160" result="shape"/>
</filter>
<linearGradient id="paint0_linear_7232_107160" x1="150.744" y1="44.7935" x2="184.67" y2="78.3384" gradientUnits="userSpaceOnUse">
<stop stop-color="#AFAAA3"/>
<stop offset="1" stop-color="#DDDDDD"/>
</linearGradient>
<linearGradient id="paint1_linear_7232_107160" x1="26.7934" y1="30.3683" x2="178.355" y2="88.6125" gradientUnits="userSpaceOnUse">
<stop offset="0.475" stop-color="#EEEEE5"/>
<stop offset="1" stop-color="#CBB5B5"/>
</linearGradient>
<linearGradient id="paint2_linear_7232_107160" x1="115.991" y1="72.3319" x2="149.329" y2="99.9824" gradientUnits="userSpaceOnUse">
<stop offset="0.54" stop-color="white"/>
<stop offset="1" stop-color="#E8E8E8"/>
</linearGradient>
</defs>
</svg>
