<svg width="213" height="149" viewBox="0 0 213 149" fill="none" xmlns="http://www.w3.org/2000/svg">
<line y1="-1" x2="45.6681" y2="-1" transform="matrix(-0.354549 0.935037 -0.842979 -0.537947 76.5938 93.6953)" stroke="url(#paint0_linear_7232_107274)" stroke-width="2"/>
<line y1="-1" x2="45.6681" y2="-1" transform="matrix(-0.354549 0.935037 -0.842979 -0.537947 85.8906 96.9375)" stroke="url(#paint1_linear_7232_107274)" stroke-width="2"/>
<line y1="-1" x2="45.6681" y2="-1" transform="matrix(-0.354549 0.935037 -0.842979 -0.537947 99.5938 86.8516)" stroke="url(#paint2_linear_7232_107274)" stroke-width="2"/>
<line y1="-1" x2="45.6681" y2="-1" transform="matrix(-0.354549 0.935037 -0.842979 -0.537947 109.262 86.8516)" stroke="url(#paint3_linear_7232_107274)" stroke-width="2"/>
<line y1="-1" x2="45.6681" y2="-1" transform="matrix(-0.354549 0.935037 -0.842979 -0.537947 117.926 94.0234)" stroke="url(#paint4_linear_7232_107274)" stroke-width="2"/>
<line y1="-1" x2="45.6681" y2="-1" transform="matrix(-0.354549 0.935037 -0.842979 -0.537947 71.8789 76.1094)" stroke="url(#paint5_linear_7232_107274)" stroke-width="2"/>
<g filter="url(#filter0_d_7232_107274)">
<path d="M100.961 17.5C113.348 17.5 123.641 26.4598 125.716 38.252C127.771 37.5019 129.991 37.0928 132.306 37.0928C142.922 37.0928 151.527 45.6993 151.527 56.3154C151.527 63.6845 147.38 70.0836 141.293 73.3096C141.795 75.0249 142.065 76.8392 142.065 78.7168C142.065 89.3329 133.46 97.9393 122.844 97.9395C115.565 97.9395 109.231 93.8927 105.968 87.9268C101.575 96.3367 92.7714 102.078 82.626 102.078C71.6485 102.078 62.2421 95.3568 58.2939 85.8057C55.7544 87.1359 52.8654 87.8896 49.7998 87.8896C39.6736 87.8896 31.4648 79.6809 31.4648 69.5547C31.4651 59.4287 39.6738 51.2197 49.7998 51.2197C52.5606 51.2198 55.1781 51.8319 57.5264 52.9248C59.316 47.1339 64.7122 42.9268 71.0908 42.9268C72.7602 42.9268 74.3619 43.2158 75.8496 43.7451C75.8337 43.3776 75.8242 43.0081 75.8242 42.6367C75.8242 28.7542 87.0784 17.5001 100.961 17.5ZM107.427 66.9316C107.451 67.0003 107.476 67.0688 107.5 67.1377C107.572 67.0426 107.643 66.9472 107.717 66.8535C107.62 66.8803 107.524 66.9059 107.427 66.9316Z" fill="url(#paint6_linear_7232_107274)"/>
</g>
<g filter="url(#filter1_d_7232_107274)">
<path d="M126.664 67.806C133.982 60.4498 145.874 60.4144 153.225 67.7269C153.524 68.0248 153.81 68.3315 154.085 68.6439C158.995 67.7566 164.244 69.2022 168.05 72.9877C174.235 79.1409 174.261 89.1432 168.107 95.3285C162.85 100.613 154.783 101.401 148.687 97.6801C142.452 100.952 134.765 100.484 128.95 96.2631C123.324 99.6181 115.935 98.8863 111.078 94.0541C105.328 88.3338 105.304 79.0356 111.024 73.2855C114.86 69.4297 120.305 68.1485 125.21 69.4476C125.657 68.8797 126.142 68.3311 126.664 67.806Z" fill="url(#paint7_linear_7232_107274)"/>
</g>
<defs>
<filter id="filter0_d_7232_107274" x="0.464844" y="0.5" width="182.062" height="146.578" filterUnits="userSpaceOnUse" color-interpolation-filters="sRGB">
<feFlood flood-opacity="0" result="BackgroundImageFix"/>
<feColorMatrix in="SourceAlpha" type="matrix" values="0 0 0 0 0 0 0 0 0 0 0 0 0 0 0 0 0 0 127 0" result="hardAlpha"/>
<feOffset dy="14"/>
<feGaussianBlur stdDeviation="15.5"/>
<feComposite in2="hardAlpha" operator="out"/>
<feColorMatrix type="matrix" values="0 0 0 0 0.44828 0 0 0 0 0.40502 0 0 0 0 0.15988 0 0 0 0.28 0"/>
<feBlend mode="normal" in2="BackgroundImageFix" result="effect1_dropShadow_7232_107274"/>
<feBlend mode="normal" in="SourceGraphic" in2="effect1_dropShadow_7232_107274" result="shape"/>
</filter>
<filter id="filter1_d_7232_107274" x="75.75" y="45.2656" width="127.957" height="99.7188" filterUnits="userSpaceOnUse" color-interpolation-filters="sRGB">
<feFlood flood-opacity="0" result="BackgroundImageFix"/>
<feColorMatrix in="SourceAlpha" type="matrix" values="0 0 0 0 0 0 0 0 0 0 0 0 0 0 0 0 0 0 127 0" result="hardAlpha"/>
<feOffset dy="14"/>
<feGaussianBlur stdDeviation="15.5"/>
<feComposite in2="hardAlpha" operator="out"/>
<feColorMatrix type="matrix" values="0 0 0 0 0.44828 0 0 0 0 0.40502 0 0 0 0 0.15988 0 0 0 0.38 0"/>
<feBlend mode="normal" in2="BackgroundImageFix" result="effect1_dropShadow_7232_107274"/>
<feBlend mode="normal" in="SourceGraphic" in2="effect1_dropShadow_7232_107274" result="shape"/>
</filter>
<linearGradient id="paint0_linear_7232_107274" x1="0" y1="0.5" x2="45.6681" y2="0.5" gradientUnits="userSpaceOnUse">
<stop offset="0.663462" stop-color="#5EA1FF"/>
<stop offset="1" stop-color="#E3E8F7"/>
</linearGradient>
<linearGradient id="paint1_linear_7232_107274" x1="0" y1="0.5" x2="45.6681" y2="0.5" gradientUnits="userSpaceOnUse">
<stop offset="0.663462" stop-color="#5EA1FF"/>
<stop offset="1" stop-color="#E3E8F7"/>
</linearGradient>
<linearGradient id="paint2_linear_7232_107274" x1="0" y1="0.5" x2="45.6681" y2="0.5" gradientUnits="userSpaceOnUse">
<stop offset="0.663462" stop-color="#5EA1FF"/>
<stop offset="1" stop-color="#E3E8F7"/>
</linearGradient>
<linearGradient id="paint3_linear_7232_107274" x1="0" y1="0.5" x2="45.6681" y2="0.5" gradientUnits="userSpaceOnUse">
<stop offset="0.663462" stop-color="#5EA1FF"/>
<stop offset="1" stop-color="#E3E8F7"/>
</linearGradient>
<linearGradient id="paint4_linear_7232_107274" x1="0" y1="0.5" x2="45.6681" y2="0.5" gradientUnits="userSpaceOnUse">
<stop offset="0.663462" stop-color="#5EA1FF"/>
<stop offset="1" stop-color="#E3E8F7"/>
</linearGradient>
<linearGradient id="paint5_linear_7232_107274" x1="0" y1="0.5" x2="45.6681" y2="0.5" gradientUnits="userSpaceOnUse">
<stop offset="0.663462" stop-color="#5EA1FF"/>
<stop offset="1" stop-color="#E3E8F7"/>
</linearGradient>
<linearGradient id="paint6_linear_7232_107274" x1="26.7934" y1="30.3683" x2="178.355" y2="88.6125" gradientUnits="userSpaceOnUse">
<stop offset="0.475" stop-color="#AEAEAE"/>
<stop offset="1" stop-color="#381E1E"/>
</linearGradient>
<linearGradient id="paint7_linear_7232_107274" x1="115.991" y1="72.3318" x2="149.328" y2="99.9822" gradientUnits="userSpaceOnUse">
<stop offset="0.54" stop-color="white"/>
<stop offset="1" stop-color="#E8E8E8"/>
</linearGradient>
</defs>
</svg>
